<svg xmlns="http://www.w3.org/2000/svg" xml:space="preserve" id="svg1543" width="1355" height="709" fill-rule="evenodd" clip-rule="evenodd" image-rendering="optimizeQuality" shape-rendering="geometricPrecision" text-rendering="geometricPrecision" version="1.1" viewBox="0 0 1354.87 708.37"><defs id="defs1516"><style id="style1514" type="text/css">.fil0{fill:gray}</style></defs><g id="Vrstva_x0020_1"><g id="_1379018017568"><path id="path1519" d="M177.02 274.86c9.62 0 17.89 3.72 24.28 10.91l60.14 67.8c10.96 12.36 10.96 30.72 0 43.08l-60.14 67.79c-6.39 7.19-14.66 10.92-24.28 10.92H97.57C43.83 475.36 0 431.53 0 377.79v-5.36c0-53.74 43.83-97.57 97.57-97.57h79.45zm-99.53 22.61c4.33-1.16 8.77 1.41 9.92 5.73 1.16 4.33-1.41 8.77-5.73 9.92-10.58 2.84-20.02 8.4-27.52 15.9s-13.06 16.94-15.89 27.51c-1.16 4.33-5.6 6.89-9.92 5.74-4.33-1.15-6.89-5.6-5.74-9.92 3.59-13.41 10.62-25.34 20.08-34.8 9.46-9.46 21.4-16.49 34.8-20.08z" class="fil0"/><path id="path1521" d="M233.01 531.36c0-9.63 3.73-17.9 10.92-24.29l67.8-60.13c12.35-10.97 30.72-10.97 43.07 0l67.8 60.13c7.19 6.39 10.91 14.66 10.91 24.29v79.44c0 53.74-43.83 97.57-97.57 97.57h-5.35c-53.75 0-97.58-43.83-97.58-97.57v-79.44zm58.09-39.41c3.34-2.96 8.45-2.64 11.41.7 2.96 3.34 2.64 8.45-.7 11.41l-32.61 28.93v36.02c0 4.48-3.63 8.11-8.11 8.11-4.48 0-8.12-3.63-8.12-8.11v-37.65c0-1.9.26-3.43 1.03-5.14.76-1.71 1.74-2.93 3.17-4.2h.03l33.9-30.07z" class="fil0"/><path id="path1523" d="M433.51 218.86c0 9.62-3.72 17.9-10.91 24.28l-67.8 60.14c-12.36 10.96-30.72 10.96-43.07 0l-67.8-60.14c-7.19-6.38-10.92-14.66-10.92-24.28v-25.27h.08C229.95 109.81 323.63 78.17 323.63 0c32.99 22.25 51.19 59.14 51.19 82.42 0 23.27-13.17 35.14-10.61 48.07 2.56 12.93 10.6 18.11 23.73 18.11 13.12 0 24.03-14.37 21.22-31.84 14.24 12.94 24.35 39.13 24.35 76.83v25.27zm-160.36-86.18c2.5-3.69 7.53-4.66 11.22-2.16 3.69 2.51 4.66 7.53 2.15 11.22-5.39 7.96-9.94 16.04-13.02 24.49-3 8.2-4.62 16.79-4.27 26.02l.72 19.33c.16 4.46-3.33 8.21-7.8 8.36-4.46.16-8.2-3.33-8.36-7.79l-.73-19.33c-.42-11.48 1.55-22.07 5.22-32.1 3.58-9.79 8.76-19.02 14.87-28.04z" class="fil0"/><path id="polygon1525" d="M1255.2 475.36v-200.5h99.67v38.95h-59.57v41.82h59.57v38.95h-59.57v41.82h59.57v38.96z" class="fil0"/><path id="path1527" d="M1144.64 364.22h24.92c7.44 0 13.55-2.38 18.33-7.16 4.77-4.77 7.16-10.79 7.16-18.04 0-7.26-2.39-13.27-7.16-18.05-4.78-4.77-10.89-7.16-18.33-7.16h-24.92v50.41zm-40.1 111.14v-200.5h65.02c19.09 0 34.8 6.01 47.11 18.04 12.32 12.03 18.48 27.4 18.48 46.12 0 18.71-6.16 34.08-18.48 46.11-3.41 3.34-7.08 6.21-11.01 8.62l36.6 81.61h-47.71l-32.37-72.18h-17.54v72.18h-40.1z" class="fil0"/><path id="polygon1529" d="M1035.79 475.36v-200.5h40.1v200.5z" class="fil0"/><path id="polygon1531" d="M916.07 475.36v-200.5h99.68v38.95h-59.58v41.82h53.85v38.95h-53.85v80.78z" class="fil0"/><path id="polygon1533" d="M761.97 475.36v-200.5h45.45l42.77 121.44V274.86h37.23v200.5H841.6l-42.4-120.3v120.3z" class="fil0"/><path id="path1535" d="M657.14 433.11c4.2 4.1 9.64 6.16 16.32 6.16 6.69 0 12.13-2.06 16.33-6.16 4.2-4.11 6.3-9.5 6.3-16.18v-83.64c0-6.68-2.1-12.08-6.3-16.18-4.2-4.11-9.64-6.16-16.33-6.16-6.68 0-12.12 2.05-16.32 6.16-4.21 4.1-6.31 9.5-6.31 16.18v83.64c0 6.68 2.1 12.07 6.31 16.18zm61.43 27.78c-11.74 11.56-26.78 17.33-45.11 17.33s-33.37-5.77-45.11-17.33c-11.74-11.55-17.62-26.21-17.62-43.96v-83.64c0-17.76 5.88-32.41 17.62-43.97 11.74-11.55 26.78-17.33 45.11-17.33s33.37 5.78 45.11 17.33c11.75 11.56 17.62 26.21 17.62 43.97v83.64c0 17.75-5.87 32.41-17.62 43.96z" class="fil0"/><path id="path1537" d="M505.33 355.63h24.06c6.11 0 11.17-1.96 15.18-5.87 4.01-3.92 6.01-8.93 6.01-15.04 0-6.11-2-11.12-6.01-15.04-4.01-3.91-9.07-5.87-15.18-5.87h-24.06v41.82zm0 80.77h24.06c6.11 0 11.17-1.95 15.18-5.87 4.01-3.91 6.01-8.93 6.01-15.04 0-6.11-2-11.12-6.01-15.03-4.01-3.92-9.07-5.88-15.18-5.88h-24.06v41.82zm-40.1 19.27V294.54c0-10.84 8.84-19.68 19.68-19.68h48.77c16.62 0 30.27 5.2 40.96 15.61 10.7 10.41 16.04 23.72 16.04 39.96 0 18.9-7.25 33.79-21.76 44.68 14.51 10.88 21.76 25.78 21.76 44.68 0 16.23-5.34 29.55-16.04 39.96-10.69 10.4-24.34 15.61-40.96 15.61h-48.77c-10.84 0-19.68-8.85-19.68-19.69z" class="fil0"/><path id="path1539" fill="gray" fill-rule="nonzero" d="M1017.75 637.59c-6.88 0-12.6-2.25-17.17-6.76-4.57-4.51-6.85-10.14-6.85-16.9 0-6.52 2.17-11.86 6.5-16.01 4.33-4.15 9.57-6.23 15.74-6.23 4.39 0 7.77.83 10.14 2.49v-12.27c0-2.61-.77-4.69-2.31-6.23s-3.56-2.31-6.05-2.31c-2.49 0-4.54.77-6.14 2.31-1.6 1.54-2.4 3.62-2.4 6.23v4.44h-15.48v-4.44c0-6.88 2.28-12.57 6.85-17.08 4.57-4.51 10.29-6.76 17.17-6.76 6.88 0 12.57 2.25 17.08 6.76 4.51 4.51 6.76 10.2 6.76 17.08v27.57c0 4.27 1.04 7.5 3.11 9.7 2.08 2.19 4.78 3.29 8.1 3.29 4.5 0 7.97-2.17 10.4-6.49 2.43-4.33 3.65-10.29 3.65-17.88 0-14.35-4.65-26.16-13.97-35.41-9.31-9.25-21.08-13.87-35.31-13.87-14.23 0-26.03 4.65-35.4 13.96-9.37 9.31-14.06 21.09-14.06 35.32s4.69 26.03 14.06 35.4c9.37 9.37 21.17 14.05 35.4 14.05 6.17 0 11.98-.83 17.44-2.49v14.59c-6.29 1.66-12.1 2.49-17.44 2.49-18.62 0-33.95-5.99-45.99-17.97-12.04-11.97-18.05-27.33-18.05-46.07 0-18.5 6.04-33.78 18.14-45.81 12.1-12.04 27.4-18.06 45.9-18.06 18.62 0 33.92 5.99 45.9 17.97 11.98 11.98 17.97 27.4 17.97 46.25 0 11.63-2.64 20.97-7.92 28.02-5.28 7.06-12.24 10.59-20.9 10.59-7.71 0-13.52-2.61-17.44-7.83-3.67 5.58-9.48 8.36-17.43 8.36zm-6.14-17.52c1.6 1.6 3.65 2.4 6.14 2.4 2.49 0 4.51-.8 6.05-2.4 1.54-1.6 2.31-3.65 2.31-6.14 0-2.49-.77-4.54-2.31-6.14-1.54-1.6-3.56-2.4-6.05-2.4-2.49 0-4.54.83-6.14 2.49-1.6 1.66-2.4 3.68-2.4 6.05 0 2.49.8 4.54 2.4 6.14zm79.26 22.68V624.6l44.65-88.24h-44.65v-18.14h65.44v18.06l-44.72 88.32h44.66v18.15h-65.38zm80.41 0V518.22h18.86V624.6h36.47v18.15h-55.33zm69.03 0V518.22h18.85v124.53h-18.85zm40.2 0V518.22h23.22l33.36 90.58v-90.58h17.78v124.53h-23.3l-33.27-90.37v90.37h-17.79z"/></g></g></svg>