<svg xmlns="http://www.w3.org/2000/svg" xml:space="preserve" id="svg673" width="1360" height="709" fill-rule="evenodd" clip-rule="evenodd" image-rendering="optimizeQuality" shape-rendering="geometricPrecision" text-rendering="geometricPrecision" version="1.1" viewBox="0 0 1359.87 708.84"><defs id="defs634">
  <linearGradient id="brandGradient" x1="0" y1="0" x2="0.6" y2="1">
    <stop offset="0%" stop-color="#8b5cf6"/>
    <stop offset="10%" stop-color="#8b5cf6"/>
    <stop offset="35%" stop-color="#d946ef"/>
    <stop offset="70%" stop-color="#f43f5e"/>
    <stop offset="100%" stop-color="#f43f5e"/>
  </linearGradient>
  <style id="style632" type="text/css">.fil0{fill:#000}</style>
</defs><g id="Vrstva_x0020_1"><g id="_1379018015936"><path id="path637" d="M177.14 275.04c9.62 0 17.9 3.73 24.29 10.92l60.18 67.85c10.97 12.36 10.97 30.74 0 43.1l-60.18 67.84c-6.39 7.2-14.67 10.92-24.29 10.92h-79.5C43.86 475.67 0 431.81 0 378.04v-5.36c0-53.78 43.86-97.64 97.64-97.64h79.5zm-99.59 22.63c4.32-1.16 8.77 1.41 9.92 5.74 1.16 4.32-1.41 8.77-5.74 9.92-10.58 2.84-20.02 8.4-27.53 15.91-7.51 7.51-13.07 16.95-15.91 27.53-1.15 4.33-5.6 6.9-9.92 5.74-4.33-1.15-6.9-5.6-5.74-9.92 3.59-13.42 10.62-25.36 20.09-34.83 9.47-9.47 21.41-16.5 34.83-20.09z" class="fil0" style="fill:url(#brandGradient)"/><path id="path639" d="M233.17 531.71c0-9.63 3.73-17.91 10.92-24.3l67.85-60.18c12.36-10.96 30.74-10.96 43.1 0l67.84 60.18c7.2 6.39 10.92 14.67 10.92 24.3v79.49c0 53.78-43.86 97.64-97.63 97.64h-5.36c-53.78 0-97.64-43.86-97.64-97.64v-79.49zm58.12-39.43c3.35-2.96 8.46-2.65 11.42.7 2.96 3.34 2.65 8.45-.7 11.41l-32.63 28.95v36.05c0 4.48-3.64 8.12-8.12 8.12-4.48 0-8.12-3.64-8.12-8.12v-37.68c0-1.92.26-3.46 1.03-5.17.76-1.66 1.74-2.87 3.2-4.17l33.92-30.09z" class="fil0" style="fill:url(#brandGradient)"/><path id="path641" d="M433.8 219.01c0 9.62-3.72 17.91-10.92 24.29l-67.84 60.18c-12.37 10.97-30.74 10.97-43.11 0l-67.84-60.18c-7.19-6.38-10.92-14.67-10.92-24.29v-25.29h.08C230.1 109.88 323.84 78.22 323.84 0c33.02 22.27 51.23 59.18 51.23 82.47s-13.18 35.17-10.62 48.11c2.57 12.94 10.61 18.12 23.74 18.12 13.13 0 24.06-14.38 21.25-31.87 14.25 12.95 24.36 39.16 24.36 76.89v25.29zm-160.47-86.24c2.51-3.7 7.53-4.66 11.23-2.16 3.69 2.5 4.66 7.53 2.16 11.23-5.4 7.96-9.96 16.05-13.04 24.5-3 8.21-4.62 16.8-4.27 26.04l.72 19.34c.16 4.46-3.34 8.21-7.8 8.37-4.47.16-8.22-3.33-8.37-7.8l-.73-19.34c-.43-11.49 1.55-22.08 5.22-32.13 3.58-9.79 8.77-19.03 14.88-28.05z" class="fil0" style="fill:url(#brandGradient)"/><path id="polygon643" d="M1256.04 475.67V275.04h99.74v38.98h-59.62v41.85h59.62v38.98h-59.62v41.84h59.62v38.98z" class="fil0"/><path id="path645" d="M1145.4 364.47h24.94c7.45 0 13.56-2.39 18.34-7.17 4.78-4.78 7.16-10.8 7.16-18.06 0-7.26-2.38-13.28-7.16-18.05-4.78-4.78-10.89-7.17-18.34-7.17h-24.94v50.45zm-40.13 111.2V275.04h65.07c19.11 0 34.82 6.02 47.15 18.06 12.32 12.03 18.48 27.42 18.48 46.14 0 18.73-6.16 34.11-18.48 46.15-3.42 3.33-7.1 6.21-11.03 8.62l36.63 81.66h-47.75l-32.39-72.22h-17.55v72.22h-40.13z" class="fil0"/><path id="polygon647" d="M1036.49 475.67V275.04h40.12v200.63z" class="fil0"/><path id="polygon649" d="M916.68 475.67V275.04h99.74v38.98H956.8v41.85h53.89v38.98H956.8v80.82z" class="fil0"/><path id="polygon651" d="M762.48 475.67V275.04h45.47l42.81 121.53V275.04h37.26v200.63h-45.86L799.74 355.3v120.37z" class="fil0"/><path id="path653" d="M657.57 433.4c4.21 4.11 9.65 6.16 16.34 6.16 6.69 0 12.14-2.05 16.34-6.16 4.2-4.11 6.3-9.51 6.3-16.2v-83.69c0-6.69-2.1-12.08-6.3-16.19-4.2-4.11-9.65-6.17-16.34-6.17-6.69 0-12.13 2.06-16.34 6.17-4.2 4.11-6.3 9.5-6.3 16.19v83.69c0 6.69 2.1 12.09 6.3 16.2zm61.48 27.8c-11.75 11.56-26.79 17.34-45.14 17.34-18.34 0-33.39-5.78-45.14-17.34-11.75-11.56-17.63-26.23-17.63-44v-83.69c0-17.77 5.88-32.43 17.63-44 11.75-11.55 26.8-17.34 45.14-17.34 18.35 0 33.39 5.79 45.14 17.34 11.76 11.57 17.63 26.23 17.63 44v83.69c0 17.77-5.87 32.44-17.63 44z" class="fil0"/><path id="path655" d="M505.66 355.87h24.08c6.12 0 11.18-1.96 15.19-5.88 4.02-3.91 6.02-8.93 6.02-15.05 0-6.11-2-11.13-6.02-15.04-4.01-3.92-9.07-5.88-15.19-5.88h-24.08v41.85zm0 80.82h24.08c6.12 0 11.18-1.95 15.19-5.87 4.02-3.92 6.02-8.93 6.02-15.05 0-6.11-2-11.13-6.02-15.05-4.01-3.91-9.07-5.87-15.19-5.87h-24.08v41.84zm-40.12 19.29V294.74c0-10.85 8.85-19.7 19.7-19.7h48.8c16.63 0 30.29 5.21 40.99 15.62 10.7 10.42 16.05 23.74 16.05 39.99 0 18.91-7.26 33.82-21.78 44.71 14.52 10.89 21.78 25.79 21.78 44.71 0 16.24-5.35 29.57-16.05 39.98-10.7 10.41-24.36 15.62-40.99 15.62h-48.8c-10.85 0-19.7-8.84-19.7-19.69z" class="fil0"/><path id="path657" d="M769.75 638.02c-6.88 0-12.61-2.26-17.18-6.77s-6.85-10.15-6.85-16.91c0-6.53 2.16-11.87 6.5-16.02 4.33-4.16 9.58-6.23 15.75-6.23 4.39 0 7.77.83 10.15 2.49V582.3c0-2.62-.77-4.69-2.32-6.23-1.54-1.55-3.56-2.32-6.05-2.32-2.49 0-4.54.77-6.14 2.32-1.6 1.54-2.4 3.61-2.4 6.23v4.45h-15.49v-4.45c0-6.89 2.28-12.59 6.85-17.09 4.57-4.51 10.3-6.77 17.18-6.77 6.88 0 12.58 2.26 17.09 6.77 4.51 4.5 6.77 10.2 6.77 17.09v27.59c0 4.27 1.03 7.51 3.11 9.7 2.08 2.2 4.78 3.29 8.1 3.29 4.51 0 7.98-2.16 10.42-6.49 2.43-4.34 3.65-10.3 3.65-17.89 0-14.37-4.66-26.17-13.98-35.43-9.32-9.26-21.1-13.89-35.34-13.89-14.24 0-26.05 4.66-35.42 13.98-9.38 9.32-14.07 21.09-14.07 35.34 0 14.24 4.69 26.05 14.07 35.42 9.37 9.38 21.18 14.07 35.42 14.07 6.17 0 11.99-.83 17.45-2.5v14.6c-6.29 1.66-12.1 2.49-17.45 2.49-18.63 0-33.97-5.99-46.02-17.98-12.04-11.98-18.06-27.35-18.06-46.1 0-18.52 6.05-33.8 18.15-45.84 12.11-12.05 27.42-18.07 45.93-18.07 18.64 0 33.95 5.99 45.93 17.98 11.99 11.98 17.98 27.41 17.98 46.28 0 11.63-2.64 20.98-7.92 28.04-5.28 7.06-12.25 10.59-20.92 10.59-7.71 0-13.53-2.61-17.44-7.83-3.68 5.58-9.5 8.37-17.45 8.37zm-6.14-17.54c1.6 1.6 3.65 2.4 6.14 2.4 2.49 0 4.51-.8 6.05-2.4 1.55-1.6 2.32-3.65 2.32-6.14 0-2.49-.77-4.54-2.32-6.14-1.54-1.6-3.56-2.41-6.05-2.41-2.49 0-4.54.84-6.14 2.5-1.6 1.66-2.4 3.68-2.4 6.05 0 2.49.8 4.54 2.4 6.14z" class="fil0"/><path id="path659" d="M849.5 643.18V518.56h36.86c11.27 0 20.5 3.54 27.68 10.6s10.77 16.11 10.77 27.14c0 11.04-3.59 20.09-10.77 27.15-7.18 7.06-16.41 10.59-27.68 10.59h-17.98v49.14H849.5zm18.88-67.29h17.98c5.69 0 10.38-1.84 14.06-5.52 3.68-3.68 5.52-8.37 5.52-14.07 0-5.69-1.84-10.38-5.52-14.06-3.68-3.68-8.37-5.52-14.06-5.52h-17.98v39.17z" class="fil0"/><path id="path661" d="M935.33 643.18V518.56h36.85c11.28 0 20.5 3.54 27.68 10.6s10.77 16.11 10.77 27.14c0 11.04-3.59 20.09-10.77 27.15-3.85 3.79-8.29 6.56-13.32 8.32l28.4 51.41h-21.52l-27.15-49.14H954.2v49.14h-18.87zm18.87-67.29h17.98c5.7 0 10.39-1.84 14.06-5.52 3.68-3.68 5.52-8.37 5.52-14.07 0-5.69-1.84-10.38-5.52-14.06-3.67-3.68-8.36-5.52-14.06-5.52H954.2v39.17z" class="fil0"/><path id="path663" d="m1019.14 643.18 31.54-124.62h21.33l31.24 124.62h-18.78l-6.02-24.39h-34.8l-6.11 24.39h-18.4zm29.05-42.55h25.78l-12.82-51.8-12.96 51.8z" class="fil0"/><path id="path665" d="M1151.41 644.96c-10.92 0-19.85-3.44-26.79-10.33-6.95-6.88-10.42-15.66-10.42-26.34v-55.01c0-10.68 3.47-19.44 10.42-26.26 6.94-6.82 15.87-10.24 26.79-10.24 10.8 0 19.67 3.44 26.61 10.33 6.95 6.88 10.42 15.6 10.42 26.17v5.52h-18.87v-5.52c0-5.34-1.69-9.73-5.08-13.18-3.38-3.44-7.74-5.16-13.08-5.16s-9.73 1.72-13.17 5.16c-3.45 3.45-5.17 7.84-5.17 13.18v55.01c0 5.46 1.72 9.91 5.17 13.35 3.44 3.44 7.83 5.16 13.17 5.16s9.7-1.72 13.08-5.16c3.39-3.44 5.08-7.89 5.08-13.35v-18.34h-17.45v-18.16h36.32v36.5c0 10.68-3.47 19.46-10.42 26.34-6.94 6.89-15.81 10.33-26.61 10.33z" class="fil0"/><path id="path667" d="M1270.15 634.63c-7 6.89-15.9 10.33-26.7 10.33-10.8 0-19.67-3.44-26.62-10.33-6.94-6.88-10.41-15.66-10.41-26.34v-89.73h18.87v89.73c0 5.46 1.69 9.91 5.07 13.35 3.39 3.44 7.75 5.16 13.09 5.16s9.73-1.72 13.17-5.16c3.44-3.44 5.16-7.89 5.16-13.35v-89.73h18.87v89.73c0 10.68-3.5 19.46-10.5 26.34z" class="fil0"/><path id="polygon669" d="M1300.95 643.18V518.56h58.92v18.16h-40.05v35.07h37.21v18.16h-37.21v35.07h40.05v18.16z" class="fil0"/></g></g></svg>